<?xml version="1.0" encoding="utf-8"?>
<!-- Generator: Adobe Illustrator 15.1.0, SVG Export Plug-In . SVG Version: 6.00 Build 0)  -->
<!DOCTYPE svg PUBLIC "-//W3C//DTD SVG 1.1//EN" "http://www.w3.org/Graphics/SVG/1.1/DTD/svg11.dtd">
<svg version="1.1" id="レイヤー_1" xmlns="http://www.w3.org/2000/svg" xmlns:xlink="http://www.w3.org/1999/xlink" x="0px"
	 y="0px" width="900px" height="600px" viewBox="0 0 900 600" enable-background="new 0 0 900 600" xml:space="preserve">
<g id="レイヤー_2">
	<rect x="-6.17" y="433.494" fill="#8AB268" width="917.007" height="196.012"/>
	<rect x="-6.17" y="41.457" fill="#8AB268" width="917.007" height="196.012"/>
	<rect x="-6.17" y="237.475" fill="#98C472" width="917.007" height="196.012"/>
	<rect x="-6.17" y="-154.563" fill="#98C472" width="917.007" height="196.012"/>
</g>
<g id="レイヤー_1_1_">
	
		<polyline fill="none" stroke="#EFEFEF" stroke-width="5" stroke-linecap="round" stroke-linejoin="round" stroke-miterlimit="10" points="
		17.389,37.955 17.389,-464.045 885.389,-464.045 885.389,37.955 	"/>
	
		<circle fill="none" stroke="#EFEFEF" stroke-width="5" stroke-linecap="round" stroke-linejoin="round" stroke-miterlimit="10" cx="451.389" cy="39" r="91.5"/>
	<g>
		<path fill="none" stroke="#EFEFEF" stroke-width="5" stroke-linecap="round" stroke-linejoin="round" stroke-miterlimit="10" d="
			M372.484,413.492h-122.39v165h403v-165H530.702"/>
		<path fill="none" stroke="#EFEFEF" stroke-width="5" stroke-linecap="round" stroke-linejoin="round" stroke-miterlimit="10" d="
			M451.594,367.991c-33.765,0-63.253,18.29-79.108,45.501h158.218C514.846,386.281,485.357,367.991,451.594,367.991z"/>
	</g>
	<circle fill="#EFEFEF" cx="451.594" cy="476.242" r="2.5"/>
	<g>
		<path fill="none" stroke="#EFEFEF" stroke-width="5" stroke-linecap="round" stroke-linejoin="round" stroke-miterlimit="10" d="
			M885.389,39h-868v521.752c0.038,0,0.073-0.006,0.111-0.006c9.665,0,17.5,7.835,17.5,17.5c0,0.255-0.027,0.502-0.038,0.754h850.427
			V39z"/>
		<path fill="none" stroke="#EFEFEF" stroke-width="5" stroke-linecap="round" stroke-linejoin="round" stroke-miterlimit="10" d="
			M17.5,560.746c-0.038,0-0.073,0.006-0.111,0.006V579h17.573c0.011-0.252,0.038-0.499,0.038-0.754
			C35,568.581,27.165,560.746,17.5,560.746z"/>
		<path fill="none" stroke="#EFEFEF" stroke-width="5" stroke-linecap="round" stroke-linejoin="round" stroke-miterlimit="10" d="
			M867.135,578.889c0,0.037,0.006,0.073,0.006,0.111h18.248v-17.573c-0.252-0.011-0.499-0.038-0.754-0.038
			C874.97,561.389,867.135,569.224,867.135,578.889z"/>
	</g>
	
		<polyline fill="none" stroke="#EFEFEF" stroke-width="5" stroke-linecap="round" stroke-linejoin="round" stroke-miterlimit="10" points="
		360.094,578.17 360.094,523.17 543.094,523.17 543.094,578.17 	"/>
</g>
</svg>
